<svg width="30" height="30" viewBox="0 0 30 30" fill="none" xmlns="http://www.w3.org/2000/svg">
<rect width="30" height="30" rx="2" fill="#14061F"/>
<path d="M7.626 20.112C7.01 20.112 6.46867 20.0047 6.002 19.79C5.53533 19.566 5.17133 19.2533 4.91 18.852C4.658 18.4413 4.532 17.97 4.532 17.438V17.074C4.532 17.0273 4.546 16.99 4.574 16.962C4.61133 16.9247 4.65333 16.906 4.7 16.906H5.96C6.00667 16.906 6.044 16.9247 6.072 16.962C6.10933 16.99 6.128 17.0273 6.128 17.074V17.354C6.128 17.7553 6.268 18.082 6.548 18.334C6.828 18.586 7.206 18.712 7.682 18.712C8.12067 18.712 8.45667 18.6 8.69 18.376C8.92333 18.152 9.04 17.858 9.04 17.494C9.04 17.242 8.97467 17.0273 8.844 16.85C8.71333 16.6633 8.52667 16.4953 8.284 16.346C8.05067 16.1873 7.68667 15.9773 7.192 15.716C6.62267 15.4173 6.16533 15.1513 5.82 14.918C5.47467 14.6847 5.18067 14.386 4.938 14.022C4.70467 13.658 4.588 13.2147 4.588 12.692C4.588 11.8893 4.854 11.2547 5.386 10.788C5.92733 10.3213 6.63667 10.088 7.514 10.088C8.12067 10.088 8.65733 10.2047 9.124 10.438C9.59067 10.662 9.95 10.984 10.202 11.404C10.454 11.824 10.58 12.3047 10.58 12.846V13.14C10.58 13.1867 10.5613 13.2287 10.524 13.266C10.496 13.294 10.4587 13.308 10.412 13.308H9.152C9.10533 13.308 9.06333 13.294 9.026 13.266C8.998 13.2287 8.984 13.1867 8.984 13.14V12.874C8.984 12.4727 8.84867 12.1413 8.578 11.88C8.30733 11.6187 7.94333 11.488 7.486 11.488C7.08467 11.488 6.76733 11.5953 6.534 11.81C6.30067 12.0153 6.184 12.3047 6.184 12.678C6.184 12.93 6.24467 13.1447 6.366 13.322C6.48733 13.4993 6.66933 13.6673 6.912 13.826C7.164 13.9847 7.542 14.19 8.046 14.442C8.718 14.8247 9.21267 15.1233 9.53 15.338C9.84733 15.5527 10.1133 15.8327 10.328 16.178C10.552 16.514 10.664 16.9293 10.664 17.424C10.664 18.2453 10.3887 18.8987 9.838 19.384C9.28733 19.8693 8.55 20.112 7.626 20.112ZM14.9437 20.112C14.3371 20.112 13.8004 19.9907 13.3337 19.748C12.8671 19.496 12.5031 19.146 12.2417 18.698C11.9897 18.25 11.8637 17.732 11.8637 17.144V13.028C11.8637 12.44 11.9897 11.9267 12.2417 11.488C12.5031 11.04 12.8671 10.6947 13.3337 10.452C13.8004 10.2093 14.3371 10.088 14.9437 10.088C15.5504 10.088 16.0871 10.2093 16.5537 10.452C17.0204 10.6853 17.3797 11.0213 17.6317 11.46C17.8931 11.8893 18.0237 12.3933 18.0237 12.972V13.056C18.0237 13.1027 18.0051 13.1447 17.9677 13.182C17.9397 13.2193 17.9024 13.238 17.8557 13.238L16.5537 13.294C16.4417 13.294 16.3857 13.238 16.3857 13.126V12.958C16.3857 12.5193 16.2504 12.1647 15.9797 11.894C15.7184 11.6233 15.3731 11.488 14.9437 11.488C14.5051 11.488 14.1504 11.6233 13.8797 11.894C13.6184 12.1647 13.4877 12.5193 13.4877 12.958V17.256C13.4877 17.6947 13.6184 18.0493 13.8797 18.32C14.1504 18.5813 14.5051 18.712 14.9437 18.712C15.3731 18.712 15.7184 18.5813 15.9797 18.32C16.2504 18.0493 16.3857 17.6947 16.3857 17.256V17.074C16.3857 16.9713 16.4417 16.92 16.5537 16.92L17.8557 16.976C17.9024 16.976 17.9397 16.9947 17.9677 17.032C18.0051 17.06 18.0237 17.0973 18.0237 17.144V17.2C18.0237 17.7787 17.8931 18.292 17.6317 18.74C17.3797 19.1787 17.0204 19.5193 16.5537 19.762C16.0871 19.9953 15.5504 20.112 14.9437 20.112ZM24.4386 15.338C24.6252 15.7953 24.7186 16.3227 24.7186 16.92C24.7186 17.5173 24.6206 18.04 24.4246 18.488C24.2286 19.0107 23.9206 19.412 23.5006 19.692C23.0899 19.972 22.5672 20.112 21.9326 20.112C21.2139 20.112 20.6119 19.9253 20.1266 19.552C19.6412 19.1693 19.3379 18.6607 19.2166 18.026C19.1699 17.7553 19.1372 17.438 19.1186 17.074C19.1186 16.962 19.1746 16.906 19.2866 16.906H20.5746C20.6866 16.906 20.7426 16.962 20.7426 17.074C20.7612 17.3353 20.7892 17.5593 20.8266 17.746C20.8826 18.0447 21.0086 18.2827 21.2046 18.46C21.4006 18.628 21.6432 18.712 21.9326 18.712C22.2032 18.712 22.4319 18.6373 22.6186 18.488C22.8052 18.3387 22.9359 18.1287 23.0106 17.858C23.0852 17.5313 23.1226 17.1767 23.1226 16.794C23.1226 16.3273 23.0759 15.9493 22.9826 15.66C22.7959 15.1187 22.4459 14.848 21.9326 14.848C21.7832 14.848 21.6246 14.8947 21.4566 14.988C21.4192 15.016 21.3819 15.03 21.3446 15.03C21.2979 15.03 21.2559 15.0113 21.2186 14.974L20.5746 14.246C20.5372 14.2087 20.5186 14.1667 20.5186 14.12C20.5186 14.0733 20.5326 14.036 20.5606 14.008L22.6186 11.684C22.6652 11.628 22.6512 11.6 22.5766 11.6H19.4266C19.3799 11.6 19.3379 11.586 19.3006 11.558C19.2726 11.5207 19.2586 11.4787 19.2586 11.432V10.368C19.2586 10.3213 19.2726 10.284 19.3006 10.256C19.3379 10.2187 19.3799 10.2 19.4266 10.2H24.4946C24.5412 10.2 24.5786 10.2187 24.6066 10.256C24.6439 10.284 24.6626 10.3213 24.6626 10.368V11.488C24.6626 11.572 24.6392 11.6373 24.5926 11.684L22.7446 13.882C22.7166 13.9287 22.7259 13.9567 22.7726 13.966C23.1646 14.022 23.5006 14.1713 23.7806 14.414C24.0699 14.6473 24.2892 14.9553 24.4386 15.338Z" fill="white"/>
</svg>
